<?xml version="1.0" encoding="UTF-8" standalone="no"?>
<!-- Created with Inkscape (http://www.inkscape.org/) -->

<svg
   width="3898.8083"
   height="1003.3856"
   viewBox="0 0 3898.8083 1003.3856"
   version="1.1"
   id="svg1"
   xml:space="preserve"
   xmlns="http://www.w3.org/2000/svg"
   xmlns:svg="http://www.w3.org/2000/svg"><defs
     id="defs1" /><g
     id="layer1"
     transform="translate(4392.047,2455.9956)"><path
       style="fill:none;fill-opacity:1;stroke:#8b8492;stroke-width:15;stroke-linecap:square;stroke-linejoin:round;stroke-dasharray:none;stroke-opacity:1;paint-order:stroke fill markers"
       d="m -874.31251,-1574.9421 c 0,0 75.4738,-24.2974 117.2895,-37.5124 10.0249,-3.1676 9.6282,-0.4982 27.9186,2.3599 19.2462,3.0075 92.4663,14.4587 146.3718,-21.1114 73.3165,-48.3787 86.7233,-125.7578 80.7221,-170.7289 -9.301,-69.6987 -61.3018,-122.2139 -82.7966,-136.6573 -12.9563,-8.7061 -43.533,-22.3505 -58.91,-24.0029 -2.5425,-0.2732 -1.5416,-6.6377 -4.3667,-7.4191 -15.9425,-4.4091 -35.441,-5.6354 -52.9582,-3.2053 -28.8921,4.0083 -57.9978,15.4356 -86.7137,24.1272 -11.7705,3.5627 -24.8546,7.8496 -35.0619,11.4809 -2.486,0.8845 -3.2384,7.0823 -3.2384,7.0823 l -146.9962,46.7831 -130.43899,41.9914 c 0,0 -5.3004,-4.7803 -9.8172,-3.3297 -30.7407,9.8723 -80.935,25.6644 -87.5993,28.263 -26.269,10.2431 -55.3261,24.8242 -70.9391,46.304 -1.6244,2.2347 -0.2677,7.6656 -0.2677,7.6656 0,0 -30.8813,33.6717 -37.5646,61.7384 -10.585,44.452 -12.7996,69.7298 1.1137,114.2506 10.1914,32.6111 37.2317,69.2728 58.1563,84.6279 38.8642,28.5199 70.7831,44.9514 137.9057,41.744 42.0462,-2.0091 90.0068,-32.0978 112.71094,-60.4147 12.57971,-15.6895 14.07537,-18.1962 25.24362,-21.7681 33.43243,-10.6926 100.23563,-32.2707 100.23563,-32.2707 z"
       id="path11-8-3" /><circle
       style="fill:none;stroke:#8b8492;stroke-width:15;stroke-linecap:round;stroke-linejoin:round;stroke-dasharray:none;stroke-opacity:1;paint-order:normal"
       id="path12-8-4"
       cx="-180.48189"
       cy="1910.8789"
       r="32.299095"
       transform="matrix(0.9524718,-0.30462676,-0.30462676,-0.9524718,0,0)" /><circle
       style="fill:none;stroke:#8b8492;stroke-width:15;stroke-linecap:round;stroke-linejoin:round;stroke-dasharray:none;stroke-opacity:1;paint-order:normal"
       id="circle12-2-1"
       cx="-100.76137"
       cy="1970.4863"
       r="32.299095"
       transform="matrix(0.9524718,-0.30462676,-0.30462676,-0.9524718,0,0)" /><circle
       style="fill:none;stroke:#8b8492;stroke-width:15;stroke-linecap:round;stroke-linejoin:round;stroke-dasharray:none;stroke-opacity:1;paint-order:normal"
       id="circle13-4-1"
       cx="-22.137955"
       cy="1910.5132"
       r="32.299095"
       transform="matrix(0.9524718,-0.30462676,-0.30462676,-0.9524718,0,0)" /><circle
       style="fill:none;stroke:#8b8492;stroke-width:15;stroke-linecap:round;stroke-linejoin:round;stroke-dasharray:none;stroke-opacity:1;paint-order:normal"
       id="circle14-5-3"
       cx="-101.12709"
       cy="1850.5399"
       r="32.299095"
       transform="matrix(0.9524718,-0.30462676,-0.30462676,-0.9524718,0,0)" /><path
       id="rect14-5-8"
       style="fill:none;stroke:#8b8492;stroke-width:15;stroke-linecap:round;stroke-linejoin:round;stroke-miterlimit:4;stroke-dasharray:none;stroke-opacity:1;paint-order:normal"
       d="m -1172.3065,-1705.64 c -4.7113,1.5068 -7.291,6.5125 -5.7842,11.2236 l 11.038,34.5122 -34.5122,11.038 c -4.7111,1.5067 -7.2908,6.5124 -5.784,11.2236 l 9.2652,28.9692 c 1.5067,4.7111 6.5124,7.2908 11.2235,5.7841 l 34.5121,-11.0379 11.038,34.5122 c 1.5068,4.7111 6.5128,7.2919 11.2241,5.7851 l 28.9692,-9.2652 c 4.7112,-1.5067 7.2905,-6.5135 5.7838,-11.2247 l -11.038,-34.5122 34.5132,-11.0382 c 4.7112,-1.5068 7.2908,-6.5125 5.7841,-11.2236 l -9.2652,-28.9693 c -1.5067,-4.7111 -6.5124,-7.2908 -11.2236,-5.7841 l -34.5132,11.0383 -11.0379,-34.5122 c -1.5068,-4.7112 -6.5125,-7.2908 -11.2236,-5.7841 z" /><path
       style="fill:none;stroke:#8b8492;stroke-width:15;stroke-linecap:round;stroke-linejoin:round;stroke-miterlimit:4;stroke-dasharray:none;stroke-opacity:1;paint-order:normal"
       d="m -934.59941,-1680.2692 c 8.3156,-11.2226 25.1951,2.149 18.764,11.8518 -9.4241,14.2191 -19.2677,27.2964 -29.4648,40.5228 -7.0158,9.0999 -24.46216,-1.4392 -17.1897,-12.9314 8.6106,-13.607 17.8841,-25.9388 27.8905,-39.4432 z"
       id="path34-1-7" /><path
       style="fill:none;stroke:#8b8492;stroke-width:15;stroke-linecap:round;stroke-linejoin:round;stroke-miterlimit:4;stroke-dasharray:none;stroke-opacity:1;paint-order:normal"
       d="m -847.71141,-1707.8599 c 8.3157,-11.2226 25.1951,2.149 18.7641,11.8519 -9.4241,14.219 -19.2677,27.2963 -29.4649,40.5227 -7.0157,9.0999 -24.4622,-1.4392 -17.1897,-12.9313 8.6108,-13.607 17.8842,-25.939 27.8905,-39.4433 z"
       id="path34-5-7-4" /><text
       xml:space="preserve"
       style="font-size:48.0575px;font-family:Arial;-inkscape-font-specification:Arial;text-align:start;letter-spacing:2.70323px;word-spacing:0.901076px;writing-mode:lr-tb;direction:ltr;text-anchor:start;fill:#000000;fill-opacity:1;stroke:none;stroke-width:9.01076;stroke-linecap:round;stroke-linejoin:round;stroke-miterlimit:4;stroke-dasharray:none;stroke-opacity:1;paint-order:normal"
       x="-505.16599"
       y="-1757.8931"
       id="text34-1-2"
       transform="matrix(0.83708011,-0.2677213,0.3466196,1.0837703,0,0)"><tspan
         id="tspan34-1-7"
         x="-505.16599"
         y="-1757.8931"
         style="font-style:italic;font-variant:normal;font-weight:normal;font-stretch:normal;font-family:SNES;-inkscape-font-specification:'SNES Italic';fill:#000000;fill-opacity:1;stroke:none;stroke-width:9.01076">CARLOS EDUARDO</tspan></text><text
       xml:space="preserve"
       style="font-size:48.0575px;font-family:Arial;-inkscape-font-specification:Arial;text-align:start;letter-spacing:2.70323px;word-spacing:0.901076px;writing-mode:lr-tb;direction:ltr;text-anchor:start;fill:#8b8492;fill-opacity:1;stroke:none;stroke-width:9.01076;stroke-linecap:round;stroke-linejoin:round;stroke-miterlimit:4;stroke-dasharray:none;stroke-opacity:1;paint-order:normal"
       x="-505.16599"
       y="-1757.8931"
       id="text1-5-7"
       transform="matrix(0.83708011,-0.2677213,0.3466196,1.0837703,0,0)"><tspan
         id="tspan1-2-9"
         x="-505.16599"
         y="-1757.8931"
         style="font-style:italic;font-variant:normal;font-weight:normal;font-stretch:normal;font-family:SNES;-inkscape-font-specification:'SNES Italic';fill:#8b8492;fill-opacity:1;stroke:none;stroke-width:9.01076;stroke-opacity:1">CARLOS EDUARDO</tspan></text><path
       id="rect2-7-3"
       style="fill:#8b8492;fill-opacity:1;stroke:none;stroke-width:6.6544;stroke-linecap:round;stroke-linejoin:round"
       d="m -836.96011,-1829.0756 c -0.725,-0.065 -1.4758,0.01 -2.2149,0.2461 l -186.70309,59.7129 c -2.9564,0.9455 -4.5764,4.0867 -3.6309,7.043 l 0.4707,1.4726 c 0.9455,2.9564 4.0867,4.5764 7.043,3.6309 l 186.70509,-59.7129 c 2.9563,-0.9455 4.5744,-4.0866 3.6289,-7.043 l -0.4707,-1.4726 c -0.7092,-2.2173 -2.6532,-3.682 -4.8281,-3.877 z m -30.1778,11.2676 c 0.1136,0.01 0.2257,0.034 0.336,0.084 0.2192,0.097 0.3695,0.2547 0.4492,0.4727 0,0.022 0.01,0.074 0.02,0.1562 l 0.3476,2.9453 c 0.047,0.409 -0.1251,0.7351 -0.5136,0.9766 0.1743,0 0.3251,0.059 0.4492,0.168 0.097,0.086 0.1651,0.1952 0.207,0.3261 0.01,0.029 0.017,0.06 0.024,0.094 0.02,0.061 0.032,0.1083 0.037,0.1426 l 0.4121,3.7031 -1.1856,0.3809 -0.4453,-3.8282 -0.01,-0.031 c -0.022,-0.07 -0.067,-0.1205 -0.1367,-0.1523 -0.07,-0.032 -0.1443,-0.036 -0.2207,-0.012 l -0.9355,0.3008 0.4863,4.125 -1.1797,0.3769 -1.082,-9.3515 2.5957,-0.8321 c 0.1168,-0.037 0.2321,-0.051 0.3457,-0.045 z m -0.709,1.2578 -0.9296,0.2969 0.3457,3.0547 0.9374,-0.2988 c 0.099,-0.032 0.1757,-0.09 0.2325,-0.1758 0.054,-0.08 0.076,-0.1662 0.066,-0.2578 l -0.2696,-2.4239 -0.012,-0.037 c -0.024,-0.074 -0.071,-0.1263 -0.1405,-0.1582 -0.073,-0.026 -0.1496,-0.026 -0.2305,0 z m -8.582,1.6485 0.125,1.0429 -1.457,0.4668 0.3476,2.9649 1.4493,-0.4629 0.1113,1.0469 -1.4434,0.4609 0.3789,3.2539 1.4297,-0.457 0.1191,1.0429 -2.623,0.8399 -1.0605,-9.3594 z m -9.6602,3.1562 c 0.1151,0.01 0.227,0.037 0.3379,0.09 0.2148,0.098 0.3533,0.2451 0.4161,0.4414 0.017,0.053 0.03,0.1158 0.037,0.1856 l 0.3769,3.3144 c 0.03,0.2476 -0.03,0.4788 -0.1797,0.6934 -0.1494,0.2146 -0.3531,0.3634 -0.6094,0.4453 l -1.5156,0.4844 0.4727,4.1972 -1.168,0.3731 -1.0625,-9.3652 2.543,-0.8125 c 0.1191,-0.038 0.2365,-0.054 0.3515,-0.047 z m -0.6484,1.2363 -0.9629,0.3086 0.3321,3.0586 0.9492,-0.3027 c 0.099,-0.032 0.1782,-0.088 0.2363,-0.1699 0.055,-0.076 0.078,-0.1603 0.068,-0.252 l -0.2539,-2.4414 -0.012,-0.037 c -0.024,-0.074 -0.069,-0.1263 -0.1387,-0.1582 -0.068,-0.028 -0.1423,-0.03 -0.2188,-0.01 z m -9.291,1.9414 c 0.1124,0.01 0.224,0.035 0.332,0.086 0.2205,0.1009 0.3656,0.2634 0.4375,0.4883 0.018,0.057 0.028,0.1049 0.029,0.1406 l 0.8692,7.5 c 0.028,0.2435 -0.036,0.4757 -0.1934,0.6973 -0.1539,0.2161 -0.359,0.3653 -0.6152,0.4473 l -1.6114,0.5156 c -0.2382,0.076 -0.4656,0.063 -0.6816,-0.039 -0.2173,-0.1063 -0.361,-0.2713 -0.4316,-0.4922 l -0.049,-0.1523 -0.8653,-7.4883 c -0.028,-0.2435 0.036,-0.4734 0.1895,-0.6895 0.1538,-0.216 0.3557,-0.3648 0.6074,-0.4453 l 1.6387,-0.5234 c 0.1168,-0.037 0.2313,-0.052 0.3437,-0.045 z m -0.6523,1.2403 -0.627,0.1992 c -0.094,0.03 -0.1737,0.087 -0.2363,0.17 -0.059,0.078 -0.084,0.1604 -0.076,0.248 l 0.7578,6.623 0.01,0.031 c 0.022,0.07 0.07,0.1223 0.1406,0.1583 0.071,0.036 0.1456,0.039 0.2265,0.014 l 0.6211,-0.1973 c 0.2338,-0.075 0.3375,-0.222 0.3125,-0.4395 l -0.7539,-6.6093 -0.012,-0.037 c -0.024,-0.074 -0.071,-0.1264 -0.1406,-0.1583 -0.068,-0.028 -0.1417,-0.028 -0.2226,0 z m -9.6758,1.998 0.9629,8.3086 1.4296,-0.457 0.1172,1.0449 -2.623,0.8379 -1.0606,-9.3594 z m -7.5371,2.4102 0.125,1.043 -1.4571,0.4648 0.3477,2.9668 1.4492,-0.4629 0.1113,1.0469 -1.4433,0.4609 0.3808,3.2539 1.4278,-0.457 0.1191,1.043 -2.623,0.8398 -1.0606,-9.3594 z m -8.7442,2.7969 -0.3691,9.8164 -1.2344,0.3945 -2.4414,-8.916 1.0977,-0.3516 1.6914,6.4453 0.022,-6.9941 z m -10.0117,3.203 0.125,1.0411 -1.457,0.4668 0.3476,2.9667 1.4492,-0.4648 0.1114,1.0469 -1.4434,0.4609 0.3809,3.2539 1.4277,-0.457 0.1191,1.0449 -2.623,0.8379 -1.0606,-9.3594 z m -9.75,3.1836 c 0.1161,0.01 0.2289,0.037 0.3398,0.09 0.2103,0.1 0.3467,0.2453 0.4082,0.4375 0.017,0.053 0.031,0.1155 0.039,0.1895 l 0.8614,7.5019 c 0.028,0.2435 -0.032,0.4747 -0.1797,0.6934 -0.1494,0.2146 -0.3532,0.3634 -0.6094,0.4453 l -2.7774,0.8887 -1.0605,-9.3594 2.6211,-0.8379 c 0.1214,-0.039 0.2413,-0.056 0.3574,-0.049 z m -0.6582,1.2403 -1.0449,0.3339 0.8086,7.2481 1.0449,-0.334 c 0.099,-0.032 0.1782,-0.088 0.2363,-0.1699 0.054,-0.08 0.075,-0.1679 0.064,-0.2637 l -0.7422,-6.6152 c 9e-4,-0.014 -7e-4,-0.029 -0.01,-0.045 -0.022,-0.069 -0.069,-0.1186 -0.1387,-0.1504 -0.068,-0.028 -0.1417,-0.03 -0.2227,0 z m -16.6035,4.2148 0.1269,1.041 -1.457,0.4668 0.3457,2.9668 1.4512,-0.4648 0.1113,1.0469 -1.4434,0.4609 0.3789,3.2539 1.4297,-0.457 0.1192,1.0449 -2.6231,0.8379 -1.0605,-9.3594 z m -8.98637,2.8731 1.06057,9.3593 -1.16603,0.3731 -0.6836,-5.834 -0.28125,6.1426 -0.98438,0.3144 -1.70308,-5.582 0.72656,5.8945 -1.16602,0.3731 -1.05469,-9.3614 1.38868,-0.4433 1.95315,6.3613 0.30469,-7.084 z m -12.83594,4.1054 2.50977,8.8965 -1.0996,0.3516 -0.38091,-1.4746 -1.32226,0.4238 -0.008,1.5977 -1.23437,0.3945 0.375,-9.8184 z m -0.26562,2.7969 -0.0215,4.3027 1.05274,-0.3359 z m -9.14063,0.2754 c 0.11245,0.01 0.22402,0.037 0.33204,0.088 0.22052,0.1008 0.36554,0.2633 0.4375,0.4883 0.0183,0.057 0.0277,0.1031 0.0293,0.1386 l 0.26953,2.3301 -1.11914,0.3574 -0.22656,-1.9629 -0.0117,-0.037 c -0.0236,-0.074 -0.0691,-0.1263 -0.13869,-0.1582 -0.0683,-0.028 -0.1437,-0.03 -0.22461,0 l -0.62695,0.2012 c -0.0944,0.03 -0.17373,0.087 -0.23633,0.1699 -0.0594,0.078 -0.0844,0.1605 -0.0762,0.2481 l 0.75781,6.623 0.01,0.029 c 0.0222,0.07 0.0697,0.1223 0.14067,0.1582 0.0709,0.036 0.14566,0.041 0.22656,0.016 l 0.62109,-0.1992 c 0.23375,-0.075 0.33746,-0.22 0.31251,-0.4375 l -0.30665,-2.8633 -0.64062,0.2031 -0.11719,-1.0429 1.75977,-0.5625 0.49609,4.4335 c 0.0283,0.2435 -0.0363,0.4757 -0.19337,0.6973 -0.15387,0.2161 -0.35901,0.3653 -0.61523,0.4473 l -1.61133,0.5136 c -0.23824,0.076 -0.46561,0.063 -0.68164,-0.039 -0.21734,-0.1063 -0.36099,-0.2693 -0.43164,-0.4902 l -0.0488,-0.1523 -0.86524,-7.4883 c -0.0283,-0.2435 0.0356,-0.4734 0.18945,-0.6895 0.15387,-0.216 0.35571,-0.3648 0.60743,-0.4453 l 1.63867,-0.5234 c 0.11686,-0.037 0.23131,-0.054 0.34374,-0.047 z" /><path
       style="fill:none;stroke:#8b8492;stroke-width:15;stroke-linecap:square;stroke-linejoin:miter;stroke-dasharray:none;stroke-opacity:1;paint-order:stroke fill markers"
       d="m -971.86608,-1896.5246 c 0,0 0.55061,-18.6437 -13.04427,-30.7356 -13.59489,-12.0919 -85.68825,1.0783 -78.37025,-28.4267 10.6659,-43.0029 188.6338,22.71 175.76069,-52.5472 -3.85644,-22.5451 -35.3279,-18.1108 -59.4458,-19.1765 -76.78879,-3.3931 -231.69239,84.6074 -352.66339,85.7048 -88.9353,0.8068 -211.9774,-132.9146 -260.3709,-58.2942 -56.4993,87.119 222.6489,152.5901 186.1236,249.7898 -34.6208,92.1315 -208.819,119.5093 -288.684,61.9907 -96.3584,-69.397 72.7989,-315.3067 -39.45,-354.0503 -98.0961,-33.8587 -308.197,154.4374 -217.9896,222.2698 73.9225,55.5869 117.696,42.4504 103.3501,111.968 -13.772,66.7367 -199.6072,22.6258 -283.3501,8.032 -104.2645,-18.1702 -189.0643,31.4009 -280,40 -158.0193,14.9427 -316.1962,-65.5145 -433.7079,-49.5843 -206.2398,27.9585 -399.9725,70.7259 -566.2921,29.5843 -105.905,-26.1971 -241.7832,45.5647 -363.3944,38.5736 -73.8731,-4.2467 -143.945,-34.5844 -216.6056,-48.5736 -95.2969,-18.3473 -268.5606,48.8677 -287.4316,-46.3269 -17.0847,-86.1835 161.5321,-76.812 224.5445,-138.0404 26.4745,-25.7249 64.6445,-56.8903 97.8871,-92.6327"
       id="path2-19" /><rect
       style="fill:none;stroke:#8b8492;stroke-width:5;stroke-linecap:square;stroke-linejoin:miter;stroke-dasharray:none;stroke-opacity:1;paint-order:stroke fill markers"
       id="rect3-8"
       width="111.01052"
       height="87.148643"
       x="-2724.1008"
       y="-4197.207"
       ry="9.9920225"
       transform="rotate(-28.413367)" /><rect
       style="fill:none;stroke:#8b8492;stroke-width:5;stroke-linecap:square;stroke-linejoin:miter;stroke-dasharray:none;stroke-opacity:1;paint-order:stroke fill markers"
       id="rect4-6"
       width="77.659737"
       height="14.039471"
       x="-2707.4189"
       y="-4211.2173"
       ry="0"
       transform="rotate(-28.413367)" /><rect
       style="fill:none;stroke:#8b8492;stroke-width:5;stroke-linecap:square;stroke-linejoin:miter;stroke-dasharray:none;stroke-opacity:1;paint-order:stroke fill markers"
       id="rect5-5"
       width="88.608047"
       height="14.749868"
       x="-2712.8997"
       y="-4182.7139"
       ry="7.3749342"
       transform="rotate(-28.413367)" /><rect
       style="fill:none;stroke:#8b8492;stroke-width:5;stroke-linecap:square;stroke-linejoin:miter;stroke-dasharray:none;stroke-opacity:1;paint-order:stroke fill markers"
       id="rect6-0"
       width="88.608047"
       height="14.749868"
       x="-2712.8997"
       y="-4161.2563"
       ry="7.3749342"
       transform="rotate(-28.413367)" /><text
       xml:space="preserve"
       style="font-style:normal;font-variant:normal;font-weight:900;font-stretch:normal;font-size:273.396px;font-family:Lato;-inkscape-font-specification:'Lato, Heavy';font-variant-ligatures:normal;font-variant-caps:normal;font-variant-numeric:normal;font-variant-east-asian:normal;text-align:start;letter-spacing:5.12619px;word-spacing:5.12619px;writing-mode:lr-tb;direction:ltr;text-anchor:start;fill:#8b8492;fill-opacity:1;stroke:none;stroke-width:51.2619;stroke-linecap:round;stroke-linejoin:round"
       x="-4044.9365"
       y="-1706.1803"
       id="text4-2"><tspan
         id="tspan4-8"
         x="-4044.9365"
         y="-1706.1803"
         style="font-style:normal;font-variant:normal;font-weight:normal;font-stretch:normal;font-family:Lato;-inkscape-font-specification:Lato;fill:#8b8492;fill-opacity:1;stroke-width:51.2619">Game Developer</tspan></text><text
       xml:space="preserve"
       style="font-style:normal;font-variant:normal;font-weight:900;font-stretch:normal;font-size:444.112px;font-family:Lato;-inkscape-font-specification:'Lato, Heavy';font-variant-ligatures:normal;font-variant-caps:normal;font-variant-numeric:normal;font-variant-east-asian:normal;text-align:start;letter-spacing:8.32713px;word-spacing:8.32713px;writing-mode:lr-tb;direction:ltr;text-anchor:start;fill:#49515a;fill-opacity:1;stroke:none;stroke-width:83.2713;stroke-linecap:round;stroke-linejoin:round"
       x="-4052.9602"
       y="-1987.458"
       id="text3-6"><tspan
         id="tspan3-0"
         x="-4052.9602"
         y="-1987.458"
         style="fill:#49515a;fill-opacity:1;stroke-width:83.2713">Carlos Eduardo</tspan></text><path
       style="fill:#8b8492;fill-opacity:1;stroke-linecap:square;stroke-miterlimit:3.5;paint-order:markers stroke fill"
       d="m -4001.2949,-2260.1934 c -20.3956,-0.558 -39.2056,4.5367 -53.6699,12.4532 -16.5308,9.0474 -28.574,21.5957 -29.4063,36.3789 -0.4161,7.3916 2.8284,14.9884 9.0391,20.4004 6.2107,5.412 15.0066,8.9886 26.623,11.2675 l 5.9141,1.1602 c 0,0 0.7949,-4.8608 1.2773,-7.2686 0.4569,-2.4419 1.5879,-7.2541 1.6524,-7.4482 l -6.0625,-1.1836 c -9.9143,-1.9356 -16.2221,-4.9352 -19.5508,-7.8359 -3.3288,-2.9007 -4.0872,-5.2072 -3.916,-8.2481 0.3424,-6.0817 7.8352,-16.514 21.6308,-24.0644 27.5912,-15.1009 75.6362,-19.4152 116.5547,21.2324 1.7678,1.7561 7.1844,10.1243 12.5449,17.834 2.6803,3.8548 5.5033,7.6664 8.6114,10.9238 3.1081,3.2574 6.3923,6.3136 11.5625,7.3848 7.2628,1.5046 14.5348,-0.2094 19.8047,-4.2774 5.2698,-4.068 8.7089,-9.8302 11.3769,-16.3183 5.336,-12.9764 7.7367,-29.5885 9.7539,-46.2989 l 0.8926,-6.8984 c 0,0 -5.0036,-0.8233 -7.5244,-1.0791 -2.4561,-0.2492 -7.3929,-0.4425 -7.3929,-0.4425 l -0.8659,6.6232 c -2.1405,16.3718 -4.579,32.2804 -8.7363,42.3906 -2.0787,5.0551 -4.5103,8.4833 -6.67,10.1504 -2.1596,1.6671 -3.8738,2.232 -7.5957,1.4609 0.3068,0.064 -1.5976,-0.7929 -3.7519,-3.0508 -2.1543,-2.2578 -4.6688,-5.5646 -7.1485,-9.1308 -4.9592,-7.1326 -9.1563,-14.8154 -14.289,-19.9141 -25.5919,-25.4224 -54.4354,-35.4836 -80.6582,-36.2012 z m 35.7109,83.1934 c 0,0 -0.9037,4.9936 -1.2496,7.4167 -0.333,2.3329 -0.7797,7.2708 -0.7797,7.2708 l 2.8067,0.7129 c 7.3659,1.8709 14.0886,2.9534 18.7421,4.8379 4.6536,1.8845 7.1262,3.6637 8.9493,9.1328 1.6085,4.8256 1.2633,7.748 -0.092,10.5879 -1.3552,2.8399 -4.2373,5.843 -8.8828,8.7617 -9.2912,5.8375 -24.961,10.7026 -41.8887,15.207 -16.9277,4.5044 -35.1352,8.7999 -50.5528,14.9082 -15.4175,6.1084 -29.05,14.1376 -33.7578,28.2598 -7.8565,23.5681 0.5808,43.3753 15.8457,52.1445 15.2649,8.7693 35.9758,7.4354 52.2852,-4.832 l 5.4021,-4.0633 c 0,0 -3.5041,-3.5073 -5.1664,-5.3449 -1.7576,-1.943 -5.0773,-6 -5.0773,-6 l -4.217,3.4531 c -11.3827,9.3208 -26.2567,9.2383 -35.7559,3.7813 -9.4991,-5.457 -15.3082,-15.7347 -9.0878,-34.3946 2.3307,-6.9917 11.1993,-13.5692 25.0546,-19.0586 13.8554,-5.4893 31.6921,-9.7824 48.8848,-14.3574 17.1927,-4.5749 33.7219,-9.2804 46.0117,-17.0019 6.1449,-3.8608 11.3991,-8.6323 14.4395,-15.0039 3.0404,-6.3716 3.3493,-14.0965 0.7851,-21.7891 -3.1769,-9.5309 -10.3868,-15.3946 -17.5488,-18.2949 -7.162,-2.9003 -14.3715,-3.8109 -20.5508,-5.4395 z m 62.209,85.3203 c -10.9784,0.1981 -23.2925,4.9282 -35.4531,15.0977 l -4.2695,4.0136 c 0,0 0.6191,0.8443 5.3085,5.4356 3.1988,3.1319 5.2129,4.4766 5.2129,4.4766 l 3.3692,-2.42 c 17.3575,-12.4673 28.3973,-13.6781 36.539,-9.1523 8.1417,4.5258 13.45,15.1249 12.4492,26.959 -1.6985,20.086 -6.43,28.9814 -13.3652,36.9707 -6.9352,7.9892 -17.1814,15.1042 -28.3086,28.4218 l -4.8086,5.7559 11.5098,9.6172 4.9652,-5.2256 c 9.8433,-11.7809 19.3474,-18.8038 27.9703,-28.7373 8.623,-9.9334 15.1016,-23.2734 16.9844,-45.5391 1.4363,-16.9842 -5.9664,-33.4733 -20.1074,-41.3339 -5.3029,-2.9478 -11.4091,-4.4587 -17.9961,-4.3399 z"
       id="path2-1-2" /><path
       style="fill:#8b8492;fill-opacity:1;stroke-linecap:square;paint-order:stroke fill markers"
       d="m -3915.7285,-2419.3281 c -5.243,-0.035 -10.5747,0.295 -15.8985,0.8222 -19.1736,1.899 -46.7348,13.0729 -73.2519,28.9063 -26.5171,15.8334 -51.5811,36.0478 -62.9024,58.7266 -13.0137,26.0691 -28.1326,31.2773 -49.1542,39.5234 -21.0217,8.2461 -47.051,18.9046 -73.2051,53.1797 -14.926,19.5605 -25.8184,24.3495 -33.7949,23.2519 -7.9766,-1.0975 -16.9051,-9.3196 -25.4825,-23.3633 -17.1546,-28.0872 -31.1776,-75.0237 -46.6894,-105.1289 l -3.4356,-6.666 -13.334,6.8692 3.4356,6.6679 c 14.2213,27.6006 28.172,74.8898 47.2207,106.0782 9.5244,15.5942 20.7547,28.2713 36.2422,30.4023 15.4874,2.131 31.3649,-7.5236 47.7617,-29.0117 24.2321,-31.7563 45.801,-40.0949 66.7598,-48.3164 20.9587,-8.2215 42.2014,-16.9509 57.0957,-46.7871 8.8155,-17.6594 32.035,-37.5376 57.1718,-52.5469 25.1369,-15.0093 52.5993,-25.4271 67.0411,-26.8574 19.8136,-1.9624 35.636,-0.5365 46.1816,9.6406 10.5456,10.1771 17.8684,31.4626 15.8184,73.4609 l -0.2961,6.0665 c 0,0 5.0339,0.2446 7.545,0.4492 2.4787,0.2018 7.421,0.7676 7.421,0.7676 l 0.3125,-6.5411 c 2.1003,-43.9612 -5.0276,-70.1754 -20.3848,-84.9961 -11.5179,-11.1154 -26.4486,-14.4934 -42.1777,-14.5976 z"
       id="path2-1-2-0" /></g></svg>
